<svg id="V2" xmlns="http://www.w3.org/2000/svg" width="948" height="355" viewBox="0 0 948 355">
  <path fill='#DB2C6F' d="M113.883,264.5q9.02-4.317,9.1-13.118l1.807-199.091,50.6,0.459q8.432,0.077,12.905-7.767a36.6,36.6,0,0,0,4.564-18.109,38.046,38.046,0,0,0-3.876-17.269q-3.966-8.1-13.127-8.186L17.463-.017Q8.294-.1,4.19,7.93A37.979,37.979,0,0,0,0,25.126,35.4,35.4,0,0,0,4.419,43.317q4.509,7.93,12.578,8l50.6,0.459L65.788,250.865q-0.08,8.8,8.863,13.281A45.927,45.927,0,0,0,113.883,264.5Zm165.915,0.59a119.749,119.749,0,0,0,23.284-20.14l-0.073,8.066q-0.067,7.34,7.22,12.533t17.919,5.3q12.1,0.11,20.029-4.952t8-12.394l0.792-87.263a75.2,75.2,0,0,0-8.115-35.092q-8.291-16.387-26.524-26.825T274.021,93.615a114.3,114.3,0,0,0-28.082,3.412,80.8,80.8,0,0,0-24.659,10.044q-10.149,6.507-10.223,15.307a39.6,39.6,0,0,0,4.777,19.111q4.866,9.215,14.033,9.295a14.6,14.6,0,0,0,9.194-3.034,48.238,48.238,0,0,1,11.422-5.946q7.356-2.863,22.392-2.73,15.76,0.142,21.552,8.995a32.624,32.624,0,0,1,5.7,18.386l-0.034,3.667L286.9,170q-25.3-.23-44.592,4.362t-30.4,16.592q-11.11,12-11.306,33.632-0.227,24.938,13.6,36.975t32.891,12.215Q266.515,273.955,279.8,265.092Zm-18-36.282q-4-3.7-3.926-11.769,0.079-8.8,5.8-12.965t15.083-5.363a144.556,144.556,0,0,1,19.627-1.106l1.467,0.014-0.014,1.466a32.384,32.384,0,0,1-4.736,16.825A41,41,0,0,1,284.167,228.1q-6.28,4.533-12.141,4.474A14.659,14.659,0,0,1,261.793,228.81ZM497.786,346.09q18.933-5.7,31.339-18.783t12.6-34.721q0.156-17.238-7.632-27.753A50.863,50.863,0,0,0,514.071,248.7a114.929,114.929,0,0,0-26.143-8.3q-13.914-2.686-26.178-4.271a137.178,137.178,0,0,1-20.133-3.85q-7.869-2.271-7.817-7.4a9.709,9.709,0,0,1,1.51-4.753,101.63,101.63,0,0,0,21.979,2.4q22.361,0.2,39.672-7.707t27.147-21.571a53.01,53.01,0,0,0,10-31.26l0.05-5.5q0.192-21.261-13.6-36.425a73.431,73.431,0,0,1,8.315-7.075q4.239-3.072,7.571-5.981,5.907-5.078,5.966-10.947,0.046-5.13-5.583-11.051t-15.9-6.011q-4.77-.043-9.576,4.68t-11.556,20.8a89.878,89.878,0,0,0-19.008-6.59,102.169,102.169,0,0,0-22.344-2.586q-22.368-.2-39.485,7.342t-26.592,21.026q-9.473,13.485-9.635,31.448l-0.05,5.5a55.635,55.635,0,0,0,6,26.272,59.426,59.426,0,0,0,17.414,20.509,66.525,66.525,0,0,0-13.5,12.528q-5.38,6.741-5.471,17a23.9,23.9,0,0,0,3.543,13.6,30.972,30.972,0,0,0,9.45,9.253,53.458,53.458,0,0,0-17.739,15.239q-7.056,9.467-7.173,22.669a39.52,39.52,0,0,0,11.472,28.889q11.622,12.016,30.817,18.43A136.267,136.267,0,0,0,497.786,346.09Zm-60.171-36.481q-8.935-5.95-8.827-17.314a23.1,23.1,0,0,1,3.78-12.433,26.431,26.431,0,0,1,11.086-9.433,176.534,176.534,0,0,1,21.236,3.493q9.879,2.289,15.889,6.744t5.934,12.888q-0.093,10.26-9.131,16.234a35,35,0,0,1-20.038,5.869A35.8,35.8,0,0,1,437.615,309.609Zm5.2-128.475q-5.244-8.3-5.131-20.4l0.046-5.133q0.1-11.361,5.493-19.385a17.155,17.155,0,0,1,15.289-7.928q10.261,0.093,15.51,8.208t5.14,19.481l-0.05,5.5q-0.112,12.469-5.684,20.3a17.371,17.371,0,0,1-15.105,7.746Q448.053,189.432,442.814,181.134Zm168.435,86.782q8.481-5.423,8.543-12.023L621.06,116.2q0.071-7.7-8.32-12.542t-20.122-4.95q-12.47-.113-20.393,4.582t-8,12.394l-1.268,139.7q-0.06,6.6,7.773,12.171t20.3,5.684Q602.764,273.339,611.249,267.916ZM614.079,57.1q8.685-7.982,8.783-18.254,0.1-10.63-8.45-18.411T593.4,12.544a31.182,31.182,0,0,0-21.336,7.507q-8.87,7.62-8.966,18.253Q563,48.572,571.731,56.716a30.343,30.343,0,0,0,21.193,8.259A29.7,29.7,0,0,0,614.079,57.1Zm86.806,212.363q8.654-4.682,8.729-12.388l1.062-116.961,41.431,0.376a11.264,11.264,0,0,0,10.506-6.139,28.086,28.086,0,0,0,3.61-13.9,28.42,28.42,0,0,0-3.358-13.781q-3.432-6.443-10.392-6.511l-41.431-.376,0.292-32.265q0.095-10.26,5.82-14.981T731.68,47.9l13.933,0.126q10.629,0.1,16.016-7.188A27.445,27.445,0,0,0,767.1,24.388a27.716,27.716,0,0,0-5.169-16.364q-5.25-7.559-15.881-7.661l-26.4-.24A58,58,0,0,0,687.3,9.363a68.865,68.865,0,0,0-23.7,26q-8.951,16.609-9.144,37.869L652.783,256.56q-0.071,7.7,7.953,12.539t19.756,4.946Q692.222,274.151,700.885,269.463Zm135.146,77.68q16.932-7.735,26.774-20.841a123.545,123.545,0,0,0,16.218-29.554q6.381-16.443,13.506-33.612l53.243-129.322a12.408,12.408,0,0,0,1.523-6.22q0.074-8.061-6.837-14.363A56.545,56.545,0,0,0,924.234,103q-9.315-3.935-15.915-3.994a19.809,19.809,0,0,0-8.634,1.938,11.9,11.9,0,0,0-6.115,7.095l-31.334,99.086-40.53-99.738a11.8,11.8,0,0,0-6.168-7.207,22.671,22.671,0,0,0-9.515-2.1,43.712,43.712,0,0,0-16.349,3.519A49.894,49.894,0,0,0,774,111.354q-6.657,6.179-6.723,13.506a16.209,16.209,0,0,0,1.767,7.35l63.006,128.177q-0.158,17.238-6.3,26.894t-15.159,13.8a55.244,55.244,0,0,1-17.463,4.975,132.913,132.913,0,0,1-13.574.794q-7.7-.071-10.879,6.868a40.092,40.092,0,0,0-3.267,16.471q-0.145,16.129,7.334,20.234t18.479,4.2Q819.088,354.874,836.031,347.143Z"/>
</svg>
