<svg xmlns="http://www.w3.org/2000/svg" width="1178" height="392" viewBox="0 0 1178 392">
  <rect fill="none" stroke="black" stroke-width="16px" width="1164" height="380" x="4" y="4" rx="64" ry="64"/>
  <rect stroke="black"  x="45" y="45" width="486" height="299" rx="46" ry="46"/>
  <rect stroke-width="10px" stroke="black" fill="none" x="543" y="45" width="236" height="299" rx="46" ry="46"/>
  <path fill-rule="evenodd" fill="white" d="M159.75,276.25q7.248,0,11.625-4.375t4.375-11.625v-135h45.5q15,0,15-13.25t-15-13.25H98q-15,0-15,13.25t15,13.25h45.5v135q0,7.254,4.375,11.625t11.875,4.375h0ZM286,149.75a107.762,107.762,0,0,0-23.875,2.75,81.636,81.636,0,0,0-20.875,7.5,20.162,20.162,0,0,0-7.125,5.875A12.8,12.8,0,0,0,232,173.25a12.343,12.343,0,0,0,2.875,8.5,9.393,9.393,0,0,0,7.375,3.25q3,0,9.5-3.25,10.248-4,17.75-6.125a54.032,54.032,0,0,1,14.75-2.125q11.748,0,17,5.625T306.5,197v5.75h-6.25q-27.252,0-42.75,3.5T235.126,217.5q-6.879,7.752-6.875,21.25a34.716,34.716,0,0,0,5.75,19.5A39.533,39.533,0,0,0,249.751,272,49.057,49.057,0,0,0,272,277a40.15,40.15,0,0,0,21.125-5.5A32.627,32.627,0,0,0,306.5,256.25v5.5a13.956,13.956,0,0,0,4.125,10.5,14.616,14.616,0,0,0,10.625,4q7,0,11-3.875t4-10.625v-61q0-25.746-12.375-38.375T286,149.75h0Zm-7.75,104.75a19.833,19.833,0,0,1-13.875-5.125,16.953,16.953,0,0,1-5.625-13.125q0-6.5,4-10.25T276,220.75q9.246-1.5,26-1.5h4.5v5.25q0,13.254-7.875,21.625T278.251,254.5h0ZM471.5,150.25q-7,0-11.25,4a13.745,13.745,0,0,0-4.25,10.5v6.5a38.192,38.192,0,0,0-16-15.875,50.03,50.03,0,0,0-24-5.625,53.63,53.63,0,0,0-28.5,7.625,51.106,51.106,0,0,0-19.375,21.5q-6.879,13.875-6.875,31.875t7,31.75a52.365,52.365,0,0,0,19.375,21.375Q400,271.5,416,271.5a50.03,50.03,0,0,0,24-5.625A38.169,38.169,0,0,0,456,250v16q0,32-32.75,32a60.8,60.8,0,0,1-16.375-2,143.847,143.847,0,0,1-16.125-5.75q-3.5-1.5-6.75-2.625a17.4,17.4,0,0,0-5.5-1.125,8.406,8.406,0,0,0-6.875,3.25Q369,293,369,298.5q0,7.746,9.25,13.25Q396.5,322,423.749,322,455,322,471,307.25t16-43.5V165q0-6.75-4.25-10.75t-11.25-4h0Zm-47.25,97q-14.754,0-23.25-9.75t-8.5-26.75q0-17.25,8.5-27t23.25-9.75q15,0,23.375,9.75t8.375,27q0,17-8.375,26.75t-23.375,9.75h0Z"/>
  <path fill-rule="evenodd" fill="black" d="M608.747,276.5A16.638,16.638,0,0,0,620,272.625q4.5-3.873,4.5-11.125V165q0-7.248-4.5-11a16.979,16.979,0,0,0-11.25-3.75A16.486,16.486,0,0,0,597.622,154q-4.377,3.75-4.375,11v96.5q0,7.254,4.375,11.125a16.159,16.159,0,0,0,11.125,3.875h0Zm0-148.5q8.5,0,13.5-4.625a15.747,15.747,0,0,0,5-12.125,15.185,15.185,0,0,0-5.125-12q-5.127-4.5-13.375-4.5-8.5,0-13.5,4.5t-5,12a15.733,15.733,0,0,0,5,12.125q5,4.629,13.5,4.625h0Zm109.75-6,6.5-.5q12.246-1.248,12.25-12,0-6-4.125-8.875T719,98.5l-6.5.5q-22.5,1.752-34.875,15.125T665.247,151v1.75h-12.5q-14,0-14,11.75t14,11.75h12.5V261.5q0,7.254,4.5,11A16.979,16.979,0,0,0,681,276.25a16.493,16.493,0,0,0,11.125-3.75q4.371-3.75,4.375-11V176.25h21.25q14,0,14-11.75t-14-11.75H696.5V147q0-11.748,5.25-18t16.75-7h0Zm187,37.25-34.75,77-35-77.25a14.208,14.208,0,0,0-5.5-6.625,14.679,14.679,0,0,0-7.75-2.125,17.064,17.064,0,0,0-11.125,4,12.191,12.191,0,0,0-4.875,9.75,12.645,12.645,0,0,0,1.25,5.75l46.5,96.75-17,35.75a16.126,16.126,0,0,0-1.5,6.25,11.362,11.362,0,0,0,4.375,9.125,15.407,15.407,0,0,0,10.125,3.625q9,0,13.25-8.5l68.25-143a12.849,12.849,0,0,0,1.5-5.75,12.077,12.077,0,0,0-4.625-9.625,15.757,15.757,0,0,0-10.375-3.875,13.594,13.594,0,0,0-7.375,2.125,14.467,14.467,0,0,0-5.375,6.625h0Zm51.5,117.25a17.735,17.735,0,0,0,13.25-5.375,19.662,19.662,0,0,0,0-26.75,19.019,19.019,0,0,0-26.5,0,19.662,19.662,0,0,0,0,26.75,17.729,17.729,0,0,0,13.25,5.375h0Zm62,0a17.738,17.738,0,0,0,13.25-5.375,19.662,19.662,0,0,0,0-26.75,19.019,19.019,0,0,0-26.5,0,19.662,19.662,0,0,0,0,26.75,17.723,17.723,0,0,0,13.25,5.375h0Zm61.99,0a17.723,17.723,0,0,0,13.25-5.375,19.662,19.662,0,0,0,0-26.75,19.019,19.019,0,0,0-26.5,0,19.662,19.662,0,0,0,0,26.75,17.738,17.738,0,0,0,13.25,5.375h0Z"/>
</svg>
