<svg height="100%" viewBox="0 0 280 150" fill-rule="evenodd" fill="salmon" xmlns="http://www.w3.org/2000/svg">
  <path d="m86.601,17.001q3.1,0.6 4.65,2.1a5.288,5.288 0 0 1 1.073,1.435a4.56,4.56 0 0 1 0.477,2.065a9.273,9.273 0 0 1 -0.161,1.79q-0.198,1.007 -0.641,1.776a4.402,4.402 0 0 1 -1.048,1.234a4.933,4.933 0 0 1 -1.566,0.832q-1.69,0.563 -4.284,0.368q-6.891,-0.536 -11.466,-0.808a261.493,261.493 0 0 0 -2.584,-0.142q-4.517,-0.223 -11.555,-0.327a671.4,671.4 0 0 0 -1.695,-0.023q-3.7,18.4 -6.8,37q-1.1,6.8 -2.3,15.75q-1.073,8.006 -1.507,13.252a122.559,122.559 0 0 0 -0.093,1.198a6.511,6.511 0 0 1 -0.477,2.097a5.419,5.419 0 0 1 -1.923,2.353a8.433,8.433 0 0 1 -3.705,1.439a11.101,11.101 0 0 1 -1.595,0.111q-3.3,0 -5.1,-1.6a5.269,5.269 0 0 1 -1.789,-3.8a7.187,7.187 0 0 1 -0.011,-0.4q0,-1.809 0.426,-5.409a156.38,156.38 0 0 1 0.324,-2.541q0.75,-5.55 1.75,-11.65a316.042,316.042 0 0 0 0.755,-4.35q0.285,-1.719 0.521,-3.281a171.143,171.143 0 0 0 0.424,-2.969q1.1,-7.6 2.5,-15.1q1.4,-7.5 2.8,-14.2q0.3,-1.5 0.7,-3.45q0.4,-1.95 0.9,-4.35a138.602,138.602 0 0 0 -5.715,0.285q-5.22,0.377 -8.851,1.132a36.936,36.936 0 0 0 -0.834,0.183a30.163,30.163 0 0 0 -2.893,0.815q-2.915,0.992 -4.572,2.391a7.794,7.794 0 0 0 -0.485,0.444a7.93,7.93 0 0 0 -2.298,4.982a10.773,10.773 0 0 0 -0.052,1.068a11.586,11.586 0 0 0 1.531,5.721a14.176,14.176 0 0 0 0.469,0.779q0.4,0.7 0.4,1.5a3.407,3.407 0 0 1 -0.596,1.89q-0.347,0.53 -0.896,1.038a8.6,8.6 0 0 1 -0.758,0.622a9.129,9.129 0 0 1 -1.997,1.128a7.073,7.073 0 0 1 -2.653,0.522a4.734,4.734 0 0 1 -1.316,-0.174a3.7,3.7 0 0 1 -1.484,-0.826q-1.812,-1.54 -3.05,-4.272a18.514,18.514 0 0 1 -0.25,-0.578a16.991,16.991 0 0 1 -1.117,-4.269a21.937,21.937 0 0 1 -0.183,-2.881a21.081,21.081 0 0 1 0.881,-6.241a16.64,16.64 0 0 1 4.669,-7.409q5.55,-5.15 16.9,-7.55q11.35,-2.4 29.15,-2.4q9.389,0 15.536,0.292a148.328,148.328 0 0 1 2.014,0.108a121.637,121.637 0 0 1 5.415,0.446q2.459,0.261 4.624,0.611a67.021,67.021 0 0 1 1.411,0.243z"/>
  <path d="m72.595,99.73a13.778,13.778 0 0 0 4.706,0.771q7.9,0 13.1,-8.4a16.672,16.672 0 0 0 1.021,2.303a12.716,12.716 0 0 0 3.129,3.847a11.7,11.7 0 0 0 0.433,0.338a9.221,9.221 0 0 0 5.617,1.912a10.999,10.999 0 0 0 2.045,-0.194q1.837,-0.347 3.728,-1.313a20.867,20.867 0 0 0 3.127,-1.993a44.987,44.987 0 0 0 3.38,-2.85a54.085,54.085 0 0 0 5.32,-5.75a6.749,6.749 0 0 0 0.903,-1.349q0.997,-1.953 0.997,-4.851q0,-1.23 -0.257,-2.152a4.376,4.376 0 0 0 -0.493,-1.148a3.165,3.165 0 0 0 -0.301,-0.408a2.225,2.225 0 0 0 -1.749,-0.792a3.137,3.137 0 0 0 -1.86,0.618a4.764,4.764 0 0 0 -0.84,0.782a181.098,181.098 0 0 1 -1.496,1.767q-3.559,4.146 -5.804,6.183q-2.7,2.45 -4.6,2.45a3.041,3.041 0 0 1 -0.221,-0.008a2.394,2.394 0 0 1 -1.729,-0.892a2.866,2.866 0 0 1 -0.202,-0.274q-0.318,-0.489 -0.451,-1.125a4.872,4.872 0 0 1 -0.097,-1.001a19.067,19.067 0 0 1 0.003,-0.32q0.057,-3.429 1.318,-10.52a245.902,245.902 0 0 1 0.979,-5.16a306.979,306.979 0 0 0 0.187,-0.991q1.313,-7.044 1.313,-9.009a4.851,4.851 0 0 0 -0.002,-0.141q-0.098,-3.359 -4.898,-3.359q-2.3,0 -4.4,0.4a16.337,16.337 0 0 0 -0.167,-0.672q-0.453,-1.664 -1.083,-2.378a1.767,1.767 0 0 0 -0.381,-0.321q-0.833,-0.529 -2.569,-0.529a21.082,21.082 0 0 0 -6.202,0.924a24.014,24.014 0 0 0 -6.848,3.426q-6.15,4.35 -9.85,11.5q-3.7,7.15 -3.7,15.15a28.402,28.402 0 0 0 0.002,0.359q0.089,7.052 3.698,11.441a11.86,11.86 0 0 0 5.194,3.729zm15.406,-18.829l3.7,-18.4a11.707,11.707 0 0 0 -6.51,2.189a15.265,15.265 0 0 0 -1.24,0.961a19.709,19.709 0 0 0 -4.116,4.979a25.263,25.263 0 0 0 -1.534,3.071q-2.1,5 -2.1,10.6a12.33,12.33 0 0 0 0.099,1.617q0.25,1.888 1.135,2.964a3.841,3.841 0 0 0 0.016,0.019a4.086,4.086 0 0 0 2.786,1.464a5.852,5.852 0 0 0 0.664,0.036q2.2,0 4.2,-2.6q2,-2.6 2.9,-6.9z"/>
  <path d="m150.501,96.801l-6.4,4.3q-2.484,13.529 -5.971,23.278a75.028,75.028 0 0 1 -3.979,9.272a32.613,32.613 0 0 1 -3.394,5.323q-2.196,2.754 -4.72,4.346a13.857,13.857 0 0 1 -7.536,2.181a13.461,13.461 0 0 1 -3.83,-0.52a10.533,10.533 0 0 1 -4.47,-2.63a10.575,10.575 0 0 1 -3.087,-6.406a14.662,14.662 0 0 1 -0.113,-1.844a21.012,21.012 0 0 1 1.22,-6.857q0.948,-2.751 2.631,-5.64a43.813,43.813 0 0 1 1.749,-2.753a46.804,46.804 0 0 1 3.925,-4.881q6.006,-6.616 17.075,-15.169l0.6,-3.9q-1.7,2.7 -4.45,4.15q-2.75,1.45 -5.45,1.45a13.778,13.778 0 0 1 -4.706,-0.771a11.86,11.86 0 0 1 -5.194,-3.729q-3.609,-4.389 -3.698,-11.441a28.402,28.402 0 0 1 -0.002,-0.359q0,-8 3.7,-15.15q3.7,-7.15 9.85,-11.5a24.014,24.014 0 0 1 6.848,-3.426a21.082,21.082 0 0 1 6.202,-0.924q1.736,0 2.569,0.529a1.767,1.767 0 0 1 0.381,0.321q0.63,0.714 1.083,2.378a16.337,16.337 0 0 1 0.167,0.672q1.742,-0.367 3.989,-0.397a30.328,30.328 0 0 1 0.411,-0.003q2.5,0 3.55,0.75q1.001,0.715 1.048,2.748a8.802,8.802 0 0 1 0.002,0.202q0,1.113 -0.086,1.796a6.337,6.337 0 0 1 -0.014,0.104q-0.4,3.1 -2.5,15.7q-0.4,2.4 -0.85,5.25q-0.45,2.85 -0.95,6.05q7.7,-6 14.8,-10.6a7.207,7.207 0 0 1 0.783,-0.422q0.83,-0.378 1.517,-0.378a2.186,2.186 0 0 1 1.736,0.81a3.273,3.273 0 0 1 0.314,0.44q0.75,1.25 0.75,3.15q0,1.497 -0.297,2.571a4.943,4.943 0 0 1 -0.403,1.029q-0.7,1.3 -2.2,2.3q-8.6,5.8 -12.6,8.6zm-15.2,-17.2l3.2,-17.1a11.292,11.292 0 0 0 -6.139,2.023a14.986,14.986 0 0 0 -1.461,1.127a19.815,19.815 0 0 0 -3.986,4.835a25.642,25.642 0 0 0 -1.614,3.215q-2.1,5 -2.1,10.6a12.33,12.33 0 0 0 0.099,1.617q0.25,1.888 1.135,2.964a3.841,3.841 0 0 0 0.016,0.019a4.086,4.086 0 0 0 2.786,1.464a5.852,5.852 0 0 0 0.664,0.036a4.113,4.113 0 0 0 2.179,-0.655q0.657,-0.405 1.297,-1.058a10.912,10.912 0 0 0 0.924,-1.087q1.54,-2.053 2.435,-5.398a29.644,29.644 0 0 0 0.565,-2.602zm-15.7,56.2a2.805,2.805 0 0 0 1.542,-0.529q1.712,-1.132 3.688,-4.691a38.125,38.125 0 0 0 0.42,-0.78q3.15,-6 6.05,-19.1q-7.615,6.527 -11.024,11.783a27.437,27.437 0 0 0 -0.076,0.117q-2.151,3.353 -2.941,6.186a11.603,11.603 0 0 0 -0.459,3.114q0,1.7 0.65,2.8q0.65,1.1 2.15,1.1z" />
  <path d="m168.485,100.052a14.405,14.405 0 0 0 3.716,0.449a13.017,13.017 0 0 0 2.983,-0.354q5.115,-1.201 10.667,-6.47a57.215,57.215 0 0 0 4.85,-5.276a6.749,6.749 0 0 0 0.903,-1.349q0.997,-1.953 0.997,-4.851q0,-1.23 -0.257,-2.152a4.376,4.376 0 0 0 -0.493,-1.148a3.165,3.165 0 0 0 -0.301,-0.408a2.225,2.225 0 0 0 -1.749,-0.792a3.137,3.137 0 0 0 -1.86,0.618a4.764,4.764 0 0 0 -0.84,0.782a184.196,184.196 0 0 1 -1.465,1.737q-2.309,2.703 -4.074,4.528a42.627,42.627 0 0 1 -1.661,1.635q-2.7,2.5 -4.5,2.5a3.986,3.986 0 0 1 -0.537,-0.035q-0.802,-0.109 -1.37,-0.559a2.931,2.931 0 0 1 -0.793,-1.006q-0.8,-1.6 -0.8,-4.6a18.033,18.033 0 0 1 0.045,-1.205q0.213,-3.139 1.42,-9.222a243.091,243.091 0 0 1 0.935,-4.473a333.394,333.394 0 0 0 0.054,-0.257q1.444,-6.943 1.758,-9.964a13.831,13.831 0 0 0 0.088,-1.379q0,-2.736 -3.302,-3.27a11.317,11.317 0 0 0 -1.798,-0.13q-2.114,0 -3.489,0.493a4.516,4.516 0 0 0 -1.311,0.707a4.047,4.047 0 0 0 -0.275,0.242q-0.903,0.867 -1.571,2.516a15.701,15.701 0 0 0 -0.554,1.642a96.723,96.723 0 0 0 -1.259,4.709a115.141,115.141 0 0 0 -1.691,8.441q-0.755,4.627 -1.014,8.155a46.575,46.575 0 0 0 -0.136,3.395a35.4,35.4 0 0 0 0.086,2.505q0.417,5.88 2.864,9.695a9.47,9.47 0 0 0 5.734,4.151zm2.207,-53.423a14.478,14.478 0 0 0 2.309,0.172a12.934,12.934 0 0 0 2.784,-0.284a8.852,8.852 0 0 0 4.116,-2.066a7.555,7.555 0 0 0 2.219,-3.529a9.921,9.921 0 0 0 0.381,-2.821a8.542,8.542 0 0 0 -0.056,-0.994a5.858,5.858 0 0 0 -2.244,-4.106a7.5,7.5 0 0 0 -0.488,-0.351q-1.281,-0.846 -2.946,-1.198a12.408,12.408 0 0 0 -2.566,-0.251a12.993,12.993 0 0 0 -1.617,0.098a9.725,9.725 0 0 0 -5.233,2.252a9.427,9.427 0 0 0 -0.413,0.374a7.313,7.313 0 0 0 -2.337,5.476a9.57,9.57 0 0 0 0.205,2.036a6.381,6.381 0 0 0 1.895,3.414q1.477,1.371 3.991,1.778z"/>
  <path d="m225.87,72.406a2.564,2.564 0 0 0 -1.469,-0.405q-0.9,0 -1.8,0.1q-0.9,0.1 -1.7,0.2q-4.9,0.7 -8.9,0.7a27.307,27.307 0 0 1 -0.332,-0.002q-0.995,-0.012 -1.768,-0.098a99.703,99.703 0 0 0 -1.269,-0.083q-2,-0.117 -3.531,-0.117a1.775,1.775 0 0 0 -0.4,0.047q-0.66,0.153 -1.419,0.797a8.2,8.2 0 0 0 -0.681,0.656a12.714,12.714 0 0 0 -0.601,0.693a14.05,14.05 0 0 0 -1.749,2.807a14.72,14.72 0 0 0 -0.07,0.15q-0.876,1.899 -0.78,3.15a231.116,231.116 0 0 1 1.245,5.963a193.785,193.785 0 0 1 1.605,9.437a98.157,98.157 0 0 1 0.065,0.457a106.247,106.247 0 0 1 0.985,14.643a56.187,56.187 0 0 1 -0.076,3.047q-0.252,4.62 -1.342,6.338a1.861,1.861 0 0 1 -1.582,1.015q-1.35,0 -2.059,-7.724a116.118,116.118 0 0 1 -0.241,-3.126a359.188,359.188 0 0 1 -0.011,-0.169a328.402,328.402 0 0 1 -0.689,-20.981q0,-7.4 1,-17.2a179.38,179.38 0 0 0 2.296,-2.304q25.804,-26.376 25.804,-48.896a33.422,33.422 0 0 0 -0.118,-2.866q-0.196,-2.281 -0.72,-4.204a15.529,15.529 0 0 0 -1.812,-4.23a11.636,11.636 0 0 0 -0.486,-0.711q-1.209,-1.635 -2.792,-2.503a8.323,8.323 0 0 0 -4.072,-0.986a11.515,11.515 0 0 0 -2.712,0.323q-5.148,1.243 -9.76,7.268a44.915,44.915 0 0 0 -3.478,5.359a80.564,80.564 0 0 0 -2.972,5.879q-2.701,5.91 -4.88,12.965a155.054,155.054 0 0 0 -3.548,13.856q-4.15,19.75 -4.15,38.95q0,20.6 3.05,30.8q1.18,3.945 2.98,6.364a8.709,8.709 0 0 0 7.27,3.836a9.618,9.618 0 0 0 6.798,-2.694a14.408,14.408 0 0 0 2.402,-3.006a15.999,15.999 0 0 0 0.125,-0.207q2.355,-3.968 3.067,-10.33a53.781,53.781 0 0 0 0.308,-5.963a72.868,72.868 0 0 0 -0.091,-3.501q-0.092,-1.893 -0.275,-4.071a173.83,173.83 0 0 0 -0.484,-4.878q-0.85,-7.55 -2.15,-13.75a78.893,78.893 0 0 0 1.457,0.278q3.447,0.622 5.443,0.622a36.857,36.857 0 0 0 0.881,-0.01q4.937,-0.118 7.757,-1.584a6.603,6.603 0 0 0 3.762,-6.306a9.695,9.695 0 0 0 -0.081,-1.309q-0.248,-1.809 -1.25,-2.486zm-11.569,-56.505q-1.8,0 -4.45,6.1q-2.65,6.1 -5.25,16.15a247.056,247.056 0 0 0 -3.506,15.722a282.802,282.802 0 0 0 -0.994,5.528a78.429,78.429 0 0 0 8.466,-11.518a65.753,65.753 0 0 0 3.834,-7.432a58.244,58.244 0 0 0 2.959,-8.379q1.277,-4.824 1.424,-9.313a35.708,35.708 0 0 0 0.017,-0.758a22.746,22.746 0 0 0 -0.074,-1.916q-0.356,-4.184 -2.426,-4.184z"/>
  <path d="m272.701,88.201l-19.2,12.9q-2.484,13.529 -5.971,23.278a75.028,75.028 0 0 1 -3.979,9.272a32.613,32.613 0 0 1 -3.394,5.323q-2.196,2.754 -4.72,4.346a13.857,13.857 0 0 1 -7.536,2.181a13.461,13.461 0 0 1 -3.83,-0.52a10.533,10.533 0 0 1 -4.47,-2.63a10.575,10.575 0 0 1 -3.087,-6.406a14.662,14.662 0 0 1 -0.113,-1.844q0,-4.7 2.15,-9.6a26.719,26.719 0 0 1 1.915,-3.54q2.246,-3.543 6.085,-7.71a84.129,84.129 0 0 1 4.595,-4.584q4.933,-4.585 11.955,-9.966l0.3,-2.3q0.536,-2.833 1.189,-7.541a380.176,380.176 0 0 0 0.411,-3.059q-1.446,5.207 -3.729,8.609a17.233,17.233 0 0 1 -1.871,2.341q-2.806,2.923 -5.856,3.568a8.413,8.413 0 0 1 -1.744,0.182a8.258,8.258 0 0 1 -6.413,-2.947a12.208,12.208 0 0 1 -0.937,-1.203a15.755,15.755 0 0 1 -2.398,-5.735a22.346,22.346 0 0 1 -0.452,-4.615a98.01,98.01 0 0 1 0.299,-7.829a75.931,75.931 0 0 1 0.701,-5.921a78.663,78.663 0 0 1 1.646,-7.686a98.87,98.87 0 0 1 1.654,-5.564q0.706,-2.118 1.811,-3.389a5.856,5.856 0 0 1 0.989,-0.911a5.57,5.57 0 0 1 1.486,-0.74q1.655,-0.56 4.214,-0.56q1.743,0 2.639,0.44a2.096,2.096 0 0 1 0.411,0.26q0.827,0.681 0.849,2.024a4.518,4.518 0 0 1 0.001,0.076a3.471,3.471 0 0 1 -0.039,0.434q-0.137,1.008 -0.764,3.706a198.933,198.933 0 0 1 -0.297,1.26a124.01,124.01 0 0 0 -0.875,3.42q-0.39,1.625 -0.686,3.086a74.279,74.279 0 0 0 -0.039,0.194q-0.8,4.1 -1.4,7.85a63.407,63.407 0 0 0 -0.316,2.212q-0.284,2.288 -0.284,3.938a10.271,10.271 0 0 0 0.074,1.292q0.32,2.508 2.026,2.508q1.452,0 3.606,-2.81a22.589,22.589 0 0 0 0.144,-0.19a23.883,23.883 0 0 0 1.436,-2.178q1.384,-2.344 2.874,-5.771a89.066,89.066 0 0 0 0.49,-1.151q1.952,-4.67 3.817,-10.982a175.362,175.362 0 0 0 1.133,-4.018a12.336,12.336 0 0 1 0.583,-1.709q0.378,-0.875 0.862,-1.536a5.37,5.37 0 0 1 1.005,-1.055a5.254,5.254 0 0 1 1.595,-0.835q1.383,-0.465 3.355,-0.465q1.787,0 2.729,0.362a2.402,2.402 0 0 1 0.471,0.238a1.919,1.919 0 0 1 0.794,1.132q0.093,0.339 0.104,0.749a4.199,4.199 0 0 1 0.002,0.119q0,2.5 -2.6,17.2l-2.6,16.1q7.7,-5.8 15,-10.6a7.207,7.207 0 0 1 0.783,-0.422q0.83,-0.378 1.517,-0.378a2.186,2.186 0 0 1 1.736,0.81a3.273,3.273 0 0 1 0.314,0.44q0.75,1.25 0.75,3.15q0,1.497 -0.297,2.571a4.943,4.943 0 0 1 -0.403,1.029q-0.7,1.3 -2.2,2.3zm-38.506,42.54a36.133,36.133 0 0 0 0.406,-0.74q2.4,-4.49 4.8,-13.595a184.128,184.128 0 0 0 1.4,-5.705a90.074,90.074 0 0 0 -4.397,3.95q-4.381,4.222 -6.753,7.9q-2.176,3.374 -2.979,6.211a11.534,11.534 0 0 0 -0.471,3.139q0,1.7 0.65,2.8q0.65,1.1 2.15,1.1q2.335,0 5.194,-5.06z"/>
</svg>